<?xml version="1.0" encoding="UTF-8"?>
<svg width="530px" height="350px" viewBox="0 0 530 350" version="1.1" xmlns="http://www.w3.org/2000/svg" xmlns:xlink="http://www.w3.org/1999/xlink">
    <!-- Generator: Sketch 44.1 (41455) - http://www.bohemiancoding.com/sketch -->
    <title>Untitled</title>
    <desc>Created with Sketch.</desc>
    <defs></defs>
    <g id="Page-1" stroke="none" stroke-width="1" fill="none" fill-rule="evenodd">
        <g id="moowork">
            <g id="Group" transform="translate(248.000000, 260.000000)" fill-rule="nonzero" fill="#E7B49F">
                <path d="M15.883,34.318 L26.35,70.186 L35.876,36.846 C36.895,33.358 37.649,30.975 38.14,29.702 C38.63,28.428 39.551,27.213 40.904,26.057 C42.257,24.901 44.108,24.321 46.461,24.321 C48.851,24.321 50.724,24.9 52.076,26.057 C53.428,27.213 54.378,28.466 54.928,29.819 C55.476,31.172 56.241,33.515 57.221,36.846 L66.746,70.186 L77.331,34.318 C78.037,31.73 78.604,29.858 79.036,28.702 C79.467,27.547 80.192,26.527 81.212,25.644 C82.231,24.763 83.701,24.321 85.622,24.321 C87.542,24.321 89.209,24.989 90.62,26.321 C92.031,27.653 92.737,29.222 92.737,31.024 C92.737,32.671 92.129,35.161 90.914,38.493 L77.8,76.948 C76.662,80.202 75.781,82.555 75.154,84.004 C74.527,85.455 73.537,86.749 72.185,87.885 C70.833,89.023 68.981,89.59 66.629,89.59 C64.197,89.59 62.286,88.983 60.896,87.767 C59.504,86.552 58.475,85.062 57.809,83.298 C57.142,81.534 56.418,79.242 55.634,76.419 L46.461,45.136 L37.582,76.419 C36.406,80.77 35.131,84.054 33.76,86.267 C32.388,88.482 29.977,89.589 26.528,89.589 C24.764,89.589 23.264,89.246 22.029,88.561 C20.794,87.876 19.765,86.895 18.942,85.62 C18.119,84.346 17.392,82.837 16.766,81.092 C16.139,79.349 15.649,77.967 15.296,76.947 L2.3,38.493 C1.006,34.886 0.36,32.397 0.36,31.024 C0.36,29.3 1.045,27.752 2.417,26.379 C3.789,25.007 5.475,24.321 7.474,24.321 C10.14,24.321 11.943,25.077 12.884,26.585 C13.825,28.094 14.824,30.671 15.883,34.318 Z" id="Shape"></path>
                <path d="M162.297,56.955 C162.297,61.739 161.552,66.148 160.062,70.186 C158.572,74.223 156.416,77.693 153.594,80.594 C150.772,83.495 147.4,85.72 143.481,87.267 C139.561,88.816 135.15,89.589 130.25,89.589 C125.389,89.589 121.019,88.804 117.137,87.237 C113.256,85.671 109.894,83.426 107.053,80.505 C104.21,77.585 102.055,74.134 100.585,70.155 C99.115,66.178 98.38,61.777 98.38,56.954 C98.38,52.094 99.124,47.644 100.615,43.606 C102.105,39.569 104.24,36.12 107.025,33.258 C109.808,30.396 113.178,28.191 117.138,26.642 C121.097,25.095 125.467,24.32 130.251,24.32 C135.111,24.32 139.522,25.105 143.482,26.672 C147.44,28.24 150.832,30.475 153.655,33.375 C156.477,36.276 158.623,39.725 160.093,43.723 C161.562,47.724 162.297,52.133 162.297,56.955 Z M146.185,56.955 C146.185,50.408 144.745,45.313 141.863,41.668 C138.982,38.021 135.11,36.199 130.25,36.199 C127.114,36.199 124.35,37.014 121.959,38.639 C119.568,40.267 117.725,42.667 116.431,45.842 C115.138,49.019 114.491,52.722 114.491,56.956 C114.491,61.152 115.128,64.816 116.402,67.953 C117.676,71.089 119.498,73.49 121.87,75.156 C124.241,76.822 127.035,77.654 130.249,77.654 C135.109,77.654 138.981,75.822 141.862,72.156 C144.745,68.49 146.185,63.424 146.185,56.955 Z" id="Shape"></path>
                <path d="M190.874,66.422 L190.874,79.828 C190.874,83.082 190.11,85.523 188.581,87.15 C187.052,88.777 185.112,89.59 182.76,89.59 C180.446,89.59 178.545,88.767 177.056,87.12 C175.566,85.473 174.822,83.043 174.822,79.828 L174.822,35.14 C174.822,27.927 177.428,24.32 182.642,24.32 C185.308,24.32 187.228,25.163 188.405,26.848 C189.581,28.534 190.228,31.023 190.345,34.317 C192.266,31.023 194.235,28.535 196.255,26.848 C198.274,25.163 200.968,24.32 204.34,24.32 C207.711,24.32 210.985,25.163 214.16,26.848 C217.335,28.534 218.923,30.768 218.923,33.551 C218.923,35.513 218.247,37.13 216.894,38.403 C215.542,39.677 214.081,40.314 212.513,40.314 C211.925,40.314 210.504,39.952 208.25,39.226 C205.996,38.501 204.006,38.139 202.282,38.139 C199.93,38.139 198.009,38.756 196.519,39.99 C195.029,41.226 193.873,43.058 193.05,45.488 C192.227,47.92 191.658,50.81 191.345,54.162 C191.031,57.514 190.874,61.6 190.874,66.422 Z" id="Shape"></path>
                <path d="M264.669,82.24 L250.498,58.955 L241.796,67.186 L241.796,79.947 C241.796,83.043 240.982,85.426 239.356,87.092 C237.729,88.756 235.857,89.59 233.741,89.59 C231.271,89.59 229.331,88.767 227.92,87.12 C226.509,85.473 225.803,83.043 225.803,79.828 L225.803,11.384 C225.803,7.818 226.488,5.103 227.86,3.241 C229.232,1.379 231.192,0.447 233.74,0.447 C236.21,0.447 238.169,1.29 239.62,2.975 C241.07,4.661 241.796,7.15 241.796,10.444 L241.796,49.37 L259.848,30.436 C262.082,28.083 263.787,26.476 264.963,25.614 C266.139,24.752 267.569,24.32 269.255,24.32 C271.255,24.32 272.921,24.958 274.253,26.231 C275.585,27.506 276.252,29.102 276.252,31.023 C276.252,33.375 274.077,36.513 269.725,40.431 L261.199,48.251 L277.663,74.124 C278.878,76.045 279.751,77.505 280.28,78.505 C280.809,79.505 281.074,80.456 281.074,81.357 C281.074,83.906 280.377,85.913 278.986,87.383 C277.594,88.854 275.761,89.588 273.488,89.588 C271.527,89.588 270.019,89.06 268.96,88.001 C267.901,86.942 266.471,85.024 264.669,82.24 Z" id="Shape"></path>
            </g>
            <g id="Group">
                <path d="M329.731,211.894 C309.174,229.929 266.803,248.584 234.193,240.951 C213.301,231.839 198.069,213.102 192.258,188.633 C189.312,190.145 187.7,191.1 187.7,191.1 C187.7,198.787 205.214,244.718 265.424,252.744 C325.633,260.776 343.151,191.1 343.151,191.1 C341.792,190.117 340.425,189.184 339.056,188.276 C337.24,196.932 334.047,204.857 329.731,211.894 Z" id="Shape" fill="#E7B49F" fill-rule="nonzero"></path>
                <g id="Shape" fill="#474B63">
                    <path d="M83.659,287.026 C80.483,285.302 76.7,284.438 72.31,284.438 C68.546,284.438 65.116,285.232 62.02,286.821 C58.923,288.408 56.022,290.849 53.318,294.141 C51.436,290.888 49.045,288.458 46.144,286.849 C43.243,285.243 39.773,284.438 35.736,284.438 C31.855,284.438 28.327,285.223 25.152,286.79 C21.977,288.359 18.997,290.808 16.214,294.14 L16.214,292.612 C16.214,290.024 15.479,287.996 14.009,286.526 C12.539,285.056 10.707,284.321 8.511,284.321 C6.237,284.321 4.404,285.106 3.013,286.673 C1.621,288.241 0.925,290.535 0.925,293.552 L0.925,339.476 C0.925,342.809 1.699,345.328 3.247,347.032 C4.795,348.737 6.784,349.59 9.215,349.59 C11.685,349.59 13.674,348.737 15.183,347.032 C16.691,345.328 17.447,342.81 17.447,339.476 L17.447,317.78 C17.447,311.037 18.279,305.862 19.946,302.255 C21.612,298.65 25.071,296.846 30.325,296.846 C32.95,296.846 34.872,297.561 36.087,298.991 C37.302,300.423 38.047,302.255 38.322,304.49 C38.596,306.724 38.733,309.861 38.733,313.897 L38.733,339.475 C38.733,342.848 39.488,345.376 40.997,347.061 C42.506,348.746 44.476,349.589 46.907,349.589 C49.415,349.589 51.435,348.746 52.964,347.061 C54.492,345.376 55.257,342.848 55.257,339.475 L55.257,318.132 C55.257,311.272 55.845,306.488 57.021,303.784 C58.079,301.667 59.559,299.981 61.46,298.726 C63.361,297.471 65.37,296.845 67.487,296.845 C70.113,296.845 72.074,297.551 73.367,298.962 C74.66,300.373 75.455,302.118 75.748,304.195 C76.042,306.272 76.189,309.036 76.189,312.485 L76.189,339.475 C76.189,342.808 76.963,345.327 78.511,347.031 C80.059,348.736 82.048,349.589 84.479,349.589 C86.987,349.589 89.007,348.746 90.536,347.061 C92.065,345.376 92.829,342.848 92.829,339.475 L92.829,308.135 C92.829,301.902 92.142,297.336 90.771,294.434 C89.204,291.222 86.834,288.751 83.659,287.026 Z"></path>
                    <path d="M159.864,293.377 C157.042,290.477 153.65,288.242 149.692,286.674 C145.732,285.106 141.321,284.322 136.461,284.322 C131.678,284.322 127.307,285.097 123.348,286.644 C119.388,288.193 116.018,290.398 113.235,293.26 C110.451,296.122 108.315,299.571 106.825,303.608 C105.335,307.645 104.59,312.096 104.59,316.956 C104.59,321.778 105.326,326.179 106.795,330.157 C108.265,334.136 110.42,337.586 113.263,340.507 C116.104,343.427 119.466,345.672 123.347,347.239 C127.229,348.807 131.599,349.591 136.46,349.591 C141.36,349.591 145.77,348.817 149.691,347.269 C153.61,345.722 156.982,343.497 159.804,340.596 C162.626,337.695 164.782,334.225 166.272,330.188 C167.762,326.151 168.507,321.741 168.507,316.957 C168.507,312.135 167.772,307.726 166.302,303.726 C164.833,299.727 162.686,296.278 159.864,293.377 Z M148.074,332.156 C145.193,335.822 141.321,337.654 136.461,337.654 C133.246,337.654 130.453,336.822 128.082,335.156 C125.71,333.49 123.887,331.089 122.614,327.953 C121.34,324.816 120.703,321.152 120.703,316.956 C120.703,312.722 121.35,309.019 122.643,305.842 C123.937,302.667 125.779,300.267 128.171,298.639 C130.561,297.014 133.325,296.199 136.462,296.199 C141.322,296.199 145.194,298.022 148.075,301.668 C150.957,305.313 152.397,310.409 152.397,316.955 C152.396,323.424 150.956,328.49 148.074,332.156 Z"></path>
                    <path d="M232.601,293.377 C229.779,290.477 226.387,288.242 222.428,286.674 C218.468,285.106 214.057,284.322 209.197,284.322 C204.414,284.322 200.043,285.097 196.084,286.644 C192.124,288.193 188.754,290.398 185.971,293.26 C183.187,296.122 181.051,299.571 179.561,303.608 C178.071,307.645 177.326,312.096 177.326,316.956 C177.326,321.778 178.062,326.179 179.531,330.157 C181.001,334.136 183.156,337.586 185.999,340.507 C188.84,343.427 192.202,345.672 196.083,347.239 C199.965,348.807 204.335,349.591 209.196,349.591 C214.096,349.591 218.506,348.817 222.427,347.269 C226.346,345.722 229.718,343.497 232.54,340.596 C235.362,337.695 237.518,334.225 239.008,330.188 C240.498,326.151 241.243,321.741 241.243,316.957 C241.243,312.135 240.508,307.726 239.038,303.726 C237.569,299.727 235.423,296.278 232.601,293.377 Z M220.811,332.156 C217.93,335.822 214.058,337.654 209.198,337.654 C205.983,337.654 203.19,336.822 200.819,335.156 C198.447,333.49 196.624,331.089 195.351,327.953 C194.077,324.816 193.44,321.152 193.44,316.956 C193.44,312.722 194.087,309.019 195.38,305.842 C196.674,302.667 198.516,300.267 200.908,298.639 C203.299,297.014 206.062,296.199 209.199,296.199 C214.059,296.199 217.931,298.022 220.812,301.668 C223.694,305.313 225.134,310.409 225.134,316.955 C225.133,323.424 223.692,328.49 220.811,332.156 Z"></path>
                    <path d="M389.952,21.896 C388.326,13.875 369.137,8.708 364.776,3.906 C355.369,7.69 346.461,11.974 336.895,15.596 C334.75,8.734 329.943,2.993 323.409,1.208 C309.999,-2.451 298.419,7.068 293.73,17.397 C274.243,17.397 254.758,17.397 235.277,17.397 C230.99,-3.113 197.138,-4.084 191.207,15.596 C182.983,10.936 173.643,7.382 164.229,3.906 C158.063,11.546 141.407,12.679 139.948,22.793 C139.259,27.579 144.807,34.024 147.145,38.982 C149.885,44.801 150.576,52.202 156.134,54.268 C168.276,55.614 183.097,54.289 188.509,62.362 C185.777,81.781 185.484,100.621 184.013,119.915 C182.583,138.682 178.426,158.111 179.517,177.473 C182.145,224.072 220.394,257.514 264.954,257.514 C310.319,257.514 347.331,222.819 350.384,180.176 C352.98,144.005 342.221,102.285 342.295,60.561 C349.549,55.228 361.216,54.304 374.67,55.165 C376.897,47.16 391.81,31.024 389.952,21.896 Z M222.684,115.422 C205.973,112.28 202.884,81.432 226.282,79.449 C251.583,77.309 251.901,120.913 222.684,115.422 Z M368.372,45.276 C350.239,43.329 339.491,48.767 331.499,56.966 C333.868,78.524 334.375,98.153 335.998,118.12 C337.613,138.009 342.135,158.373 340.494,178.376 C339.462,190.951 335.644,202.252 329.732,211.894 C315.022,235.883 287.292,249.559 256.86,246.722 C248.769,245.968 241.168,243.992 234.194,240.95 C201.507,226.693 182.633,188.902 192.108,142.403 C195.703,141.641 200.328,146.427 206.496,148.697 C274.661,173.742 278.659,86.374 276.644,27.286 C309.609,27.578 344.718,30.016 362.976,15.596 C369.505,17.162 372.931,21.828 378.267,24.588 C375.172,31.692 372.49,39.201 368.372,45.276 Z" fill-rule="nonzero"></path>
                    <path d="M237.072,101.034 C239.778,91.635 233.807,84.751 223.581,88.441 C204.869,95.194 231.736,119.566 237.072,101.034 Z"></path>
                    <path d="M246.067,206.256 C233.902,209.977 241.033,225.472 250.563,224.235 C261.136,222.867 260.964,201.684 246.067,206.256 Z"></path>
                    <path d="M281.139,215.248 C281.687,230.049 307.554,224.574 298.226,208.051 C290.145,201.778 280.85,207.477 281.139,215.248 Z"></path>
                    <path d="M293.404,88.441 C274.692,95.194 301.558,119.566 306.895,101.034 C309.6,91.635 303.63,84.751 293.404,88.441 Z"></path>
                </g>
            </g>
        </g>
    </g>
</svg>